# xmcd
#
# Track frame offsets: 
#        150
#        13438
#        26406
#        38761
#        55066
#        74262
#        90790
#        109136
#        126855
#        142421
#        155354
#        167117
#
# Disc length: 2439 seconds
#
# Revision: 0
# Processed by: cddbd v1.5.2PL0 Copyright (c) Steve Scherf et al.
# Submitted via: ExactAudioCopy v1.3
#
DISCID=9f09850c
DTITLE=Bill Wyman - Stone Alone
DYEAR=1976
DGENRE=Blues Rock
TTITLE0=A Guarter To Three
TTITLE1=Gimme Just One Chance
TTITLE2=Soul Satisfying
TTITLE3=Apache Woman
TTITLE4=Every Sixty Seconds
TTITLE5=Get It On
TTITLE6=Feet
TTITLE7=Peanut Butter Time
TTITLE8=Wine And Wimmen
TTITLE9=If You Wanna Be Happy
TTITLE10=What's The Point
TTITLE11=No More Foolin'
EXTD=
EXTT0=
EXTT1=
EXTT2=
EXTT3=
EXTT4=
EXTT5=
EXTT6=
EXTT7=
EXTT8=
EXTT9=
EXTT10=
EXTT11=
PLAYORDER=
